<?xml version="1.0" standalone="no"?>
<!DOCTYPE svg PUBLIC "-//W3C//DTD SVG 20010904//EN"
 "http://www.w3.org/TR/2001/REC-SVG-20010904/DTD/svg10.dtd">
<svg version="1.0" xmlns="http://www.w3.org/2000/svg"
 width="256.000000pt" height="256.000000pt" viewBox="0 0 256.000000 256.000000"
 preserveAspectRatio="xMidYMid meet">

<g transform="translate(0.000000,256.000000) scale(0.100000,-0.100000)"
fill="#000000" stroke="none">
<path d="M1141 2551 c-12 -8 -37 -117 -57 -248 -6 -40 -9 -44 -48 -53 -22 -6
-66 -21 -96 -34 l-55 -23 -106 99 c-59 54 -115 98 -126 98 -18 0 -230 -149
-244 -172 -6 -10 79 -187 116 -241 11 -16 5 -29 -49 -102 -70 -97 -65 -95
-214 -69 -155 26 -146 32 -203 -126 -27 -74 -48 -141 -47 -148 2 -7 61 -44
133 -81 l130 -69 3 -103 3 -104 -136 -67 c-145 -73 -147 -75 -122 -139 8 -19
22 -55 31 -81 l18 -48 214 0 c118 0 214 2 214 4 0 2 -11 29 -25 59 -33 71 -60
170 -76 275 -14 94 -3 214 32 334 74 254 247 459 481 568 189 88 438 104 639
40 375 -120 635 -491 616 -880 -12 -236 -93 -424 -255 -588 -198 -201 -449
-287 -741 -253 -156 19 -262 58 -388 147 l-64 44 -99 0 -99 0 -56 -116 c-30
-63 -55 -123 -55 -133 0 -10 20 -31 48 -48 26 -17 78 -54 117 -82 38 -28 75
-51 82 -51 7 0 60 43 117 95 l104 95 83 -25 c46 -15 91 -30 98 -34 10 -5 24
-55 40 -137 15 -71 30 -135 34 -142 6 -9 49 -12 157 -12 147 0 150 0 155 22 2
13 14 70 25 128 24 121 34 150 54 150 7 0 48 11 90 25 l77 25 105 -95 c57 -52
110 -95 117 -95 12 0 68 38 195 133 28 22 52 46 52 53 0 8 -27 69 -61 135
l-60 121 39 51 c21 29 47 67 58 85 19 33 20 34 69 27 28 -4 64 -9 80 -11 17
-2 58 -7 93 -12 74 -10 84 -5 105 58 9 25 29 81 46 125 17 44 31 87 31 96 0
11 -43 39 -135 85 l-135 69 2 104 3 103 130 69 c71 37 131 73 133 78 4 11 -11
56 -66 206 l-30 80 -54 -1 c-29 0 -98 -6 -153 -13 -99 -14 -99 -14 -114 9 -9
13 -37 50 -63 83 l-48 60 19 31 c54 91 118 224 112 234 -14 23 -225 172 -244
172 -11 0 -46 -24 -76 -52 -117 -110 -150 -138 -159 -138 -5 0 -31 9 -58 20
-27 10 -67 24 -89 29 l-41 11 -13 77 c-7 43 -17 94 -22 113 -5 19 -9 47 -9 62
0 17 -8 31 -19 38 -24 12 -270 13 -290 1z"/>
<path d="M1158 2100 c-64 -10 -192 -52 -253 -83 -59 -29 -163 -108 -222 -169
-57 -59 -132 -172 -164 -244 -67 -157 -86 -371 -46 -534 14 -57 32 -103 60
-155 l32 -60 472 -2 c313 -1 487 -6 514 -13 23 -7 56 -25 72 -41 28 -28 29
-33 23 -87 -9 -73 -36 -128 -94 -194 l-47 -52 75 40 c117 61 197 154 226 263
l13 46 0 -42 c1 -24 -8 -66 -19 -95 -11 -28 -18 -53 -16 -56 7 -6 135 120 171
168 65 88 120 213 144 325 8 42 8 272 -1 318 -61 306 -301 562 -608 647 -86
23 -247 33 -332 20z m354 -104 c188 -63 358 -209 447 -384 17 -34 20 -47 10
-58 -16 -19 -26 -18 -34 4 -6 21 -45 42 -76 42 -12 0 -34 -9 -51 -21 -16 -12
-30 -20 -32 -18 -1 2 -8 19 -16 37 -7 18 -26 44 -42 57 -40 34 -129 59 -183
51 -58 -9 -129 -56 -161 -108 -15 -24 -27 -44 -28 -44 0 -1 -11 -5 -23 -8 -20
-6 -23 -4 -23 18 0 14 9 49 20 78 24 63 27 118 6 118 -9 0 -16 12 -18 28 -3
25 -6 27 -53 27 -49 0 -50 -1 -47 -27 2 -17 -1 -28 -9 -28 -8 0 -10 -16 -7
-54 4 -45 1 -55 -16 -66 -16 -10 -21 -10 -30 2 -18 24 -54 39 -78 33 -17 -4
-25 0 -33 17 -8 19 -18 23 -59 23 -45 0 -49 2 -67 37 -22 43 -51 65 -97 74
-31 6 -32 7 -16 26 17 18 34 18 371 14 371 -4 389 -2 359 39 -10 14 -21 17
-44 12 -18 -4 -32 -2 -32 3 0 5 -11 17 -25 26 -20 13 -31 14 -57 5 -29 -10
-34 -9 -56 14 -13 15 -31 24 -40 21 -49 -13 -72 -16 -72 -9 0 5 -3 19 -7 32
l-6 24 124 -6 c96 -4 141 -11 201 -31z m-294 -424 c4 -27 -27 -62 -55 -62 -22
0 -63 -27 -63 -41 0 -5 16 -9 35 -9 19 0 35 -4 35 -10 0 -5 7 -10 15 -10 8 0
15 -7 15 -15 0 -8 -8 -15 -18 -15 -28 0 -54 -34 -50 -66 2 -19 14 -35 35 -49
42 -26 41 -35 -2 -35 -46 0 -79 32 -71 66 8 32 -25 77 -62 84 -25 5 -27 10
-30 58 -3 48 -5 52 -28 52 -23 0 -24 -3 -24 -55 0 -30 -4 -55 -10 -55 -5 0
-10 16 -10 35 0 24 -5 35 -15 35 -11 0 -15 -11 -15 -40 0 -26 -8 -52 -22 -72
-17 -22 -19 -32 -10 -35 7 -3 12 -22 12 -45 0 -36 -2 -39 -22 -32 -13 4 -36 7
-51 5 -20 -1 -35 6 -49 24 -12 15 -27 24 -35 21 -7 -3 -16 1 -19 9 -3 8 -26
24 -50 36 -42 20 -63 20 -108 3 -12 -5 -14 1 -10 33 7 47 32 137 50 181 l13
32 308 -2 308 -3 3 -23z m809 -149 c9 -33 11 -279 2 -287 -12 -12 -38 6 -47
32 l-9 27 -18 -35 c-10 -19 -24 -39 -32 -43 -11 -7 -11 -12 -3 -22 8 -10 8
-19 -1 -36 l-11 -22 -19 24 c-23 29 -24 39 -4 39 11 0 10 7 -6 35 -30 50 -35
50 -60 6 -20 -37 -23 -59 -7 -54 4 2 2 -9 -4 -23 -9 -20 -9 -27 0 -33 9 -6 7
-15 -10 -36 l-22 -28 30 5 c29 4 30 2 32 -32 1 -19 -4 -55 -12 -80 -9 -28 -14
-37 -15 -23 -1 12 -5 24 -10 27 -5 3 -7 15 -4 26 4 15 0 20 -16 20 -12 0 -21
6 -21 15 0 8 -10 20 -22 26 -31 16 -38 28 -38 67 0 27 -4 32 -24 32 -14 0 -30
10 -40 25 -26 39 -59 51 -97 34 -26 -10 -34 -10 -37 -1 -10 31 -55 72 -72 67
-10 -3 -21 -2 -24 3 -3 6 -22 13 -41 16 -19 4 -35 11 -35 16 0 9 409 16 586
10 40 -1 74 2 77 7 14 22 -14 36 -83 40 -53 3 -76 9 -91 24 -20 20 -64 26 -74
9 -10 -15 -23 -12 -29 8 -9 28 -42 43 -70 32 -16 -6 -27 -6 -31 1 -12 19 -85
49 -120 49 -20 0 -50 -6 -68 -14 -32 -13 -97 -78 -97 -96 0 -6 -4 -10 -10 -10
-15 0 -13 148 3 165 10 12 72 14 354 15 l343 0 7 -27z m-827 -74 c0 -33 -3
-40 -17 -37 -32 6 -30 78 2 78 11 0 15 -11 15 -41z m-322 -177 c-3 -35 -5 -37
-38 -37 -28 -1 -39 -7 -55 -33 -24 -37 -35 -39 -61 -11 -14 16 -15 22 -5 28 9
6 7 16 -12 44 l-25 36 -27 -41 c-20 -30 -24 -43 -15 -48 8 -5 1 -10 -19 -15
-17 -4 -36 -16 -42 -27 -15 -27 -25 -14 -38 50 -22 106 -36 97 165 94 l175 -3
-3 -37z m312 8 c0 -45 -9 -49 -67 -28 -27 10 -33 17 -33 40 0 27 2 28 50 28
l50 0 0 -40z m713 -166 c-7 -18 -10 -18 -22 5 -9 16 -8 18 8 14 12 -3 17 -11
14 -19z m-19 -42 c2 -4 -2 -16 -10 -27 -13 -18 -14 -18 -14 8 0 25 13 36 24
19z"/>
<path d="M1416 1801 c-26 -28 -13 -61 24 -61 41 0 58 32 30 60 -25 25 -32 25
-54 1z"/>
<path d="M1574 1805 c-4 -9 -2 -21 3 -26 14 -14 45 1 41 20 -4 22 -37 26 -44
6z"/>
<path d="M1700 1800 c-24 -24 -24 -30 -7 -54 9 -12 23 -17 42 -14 25 2 31 8
33 33 3 19 -2 33 -14 42 -24 17 -30 17 -54 -7z"/>
<path d="M630 1520 c-25 -25 -23 -37 13 -63 24 -19 27 -19 51 -3 41 26 32 69
-16 81 -20 5 -32 1 -48 -15z"/>
<path d="M797 1523 c-15 -14 -7 -63 12 -73 41 -21 81 21 55 58 -14 21 -53 30
-67 15z"/>
<path d="M1741 1379 c-31 -12 -27 -15 39 -28 30 -6 65 -13 78 -17 33 -10 27
13 -10 36 -36 21 -69 24 -107 9z"/>
<path d="M678 791 c-145 -4 -211 -10 -220 -18 -6 -7 -10 -13 -7 -14 29 -4 142
-8 449 -13 510 -10 550 -18 550 -115 0 -37 -7 -57 -30 -89 -17 -23 -28 -42
-25 -42 15 0 102 50 116 66 24 27 59 100 59 122 0 29 -38 72 -79 90 -30 13
-85 16 -321 17 -157 1 -378 -1 -492 -4z"/>
<path d="M113 784 c-7 -3 -13 -12 -13 -20 0 -11 19 -14 89 -14 80 0 116 9 93
24 -13 8 -155 16 -169 10z"/>
<path d="M450 690 c0 -10 43 -32 89 -46 35 -10 116 -13 336 -13 250 0 297 -2
333 -16 37 -15 42 -21 42 -50 0 -39 -28 -78 -70 -95 -45 -19 -36 -28 19 -19
61 9 96 27 143 73 59 57 63 104 15 140 -28 20 -41 21 -468 26 -241 3 -439 3
-439 0z"/>
<path d="M230 672 c0 -5 25 -21 55 -36 48 -23 66 -26 128 -24 l72 3 -62 33
c-52 26 -73 32 -128 32 -36 0 -65 -4 -65 -8z"/>
<path d="M820 585 c0 -8 128 -75 174 -91 38 -13 57 -14 108 -5 33 6 69 18 80
28 17 15 17 18 3 32 -28 29 -97 41 -232 41 -73 0 -133 -2 -133 -5z"/>
</g>
</svg>
